<?xml version="1.0" encoding="utf-8"?>
<!-- Generator: Adobe Illustrator 25.2.0, SVG Export Plug-In . SVG Version: 6.00 Build 0)  -->
<!DOCTYPE svg PUBLIC "-//W3C//DTD SVG 1.1//EN" "http://www.w3.org/Graphics/SVG/1.1/DTD/svg11.dtd" [
	<!ENTITY ns_extend "http://ns.adobe.com/Extensibility/1.0/">
	<!ENTITY ns_ai "http://ns.adobe.com/AdobeIllustrator/10.0/">
	<!ENTITY ns_graphs "http://ns.adobe.com/Graphs/1.0/">
	<!ENTITY ns_vars "http://ns.adobe.com/Variables/1.0/">
	<!ENTITY ns_imrep "http://ns.adobe.com/ImageReplacement/1.0/">
	<!ENTITY ns_sfw "http://ns.adobe.com/SaveForWeb/1.0/">
	<!ENTITY ns_custom "http://ns.adobe.com/GenericCustomNamespace/1.0/">
	<!ENTITY ns_adobe_xpath "http://ns.adobe.com/XPath/1.0/">
]>
<svg version="1.1" id="Layer_1" xmlns:x="&ns_extend;" xmlns:i="&ns_ai;" xmlns:graph="&ns_graphs;"
	 xmlns="http://www.w3.org/2000/svg" xmlns:xlink="http://www.w3.org/1999/xlink" x="0px" y="0px" viewBox="0 0 181.1 50"
	 style="enable-background:new 0 0 181.1 50;" xml:space="preserve">
<style type="text/css">
	.st0{fill-rule:evenodd;clip-rule:evenodd;fill:#E30016;}
	.st1{fill-rule:evenodd;clip-rule:evenodd;fill:#91137C;}
	.st2{fill:#FFFFFF;}
</style>
<metadata>
	<sfw  xmlns="&ns_sfw;">
		<slices></slices>
		<sliceSourceBounds  bottomLeftOrigin="true" height="134.7" width="169.2" x="-237.3" y="479.7"></sliceSourceBounds>
	</sfw>
</metadata>
<path class="st1" d="M158.4,14.2c-0.7,0-1.3,0.3-1.8,0.9c-0.5,0.6-0.7,1.3-0.7,2.3c0,0.3,0,0.7,0.1,1.1c0,0.5,0.1,1,0.3,1.4
	c0.2,0.8,0.5,1.5,1,2.1c0.4,0.6,1.1,1,1.9,1c0.8,0,1.4-0.3,1.8-0.9c0.5-0.6,0.7-1.4,0.7-2.4c0-0.3,0-0.6,0-1c0-0.3-0.1-0.7-0.1-1
	c-0.2-0.9-0.5-1.8-1-2.5C160,14.6,159.3,14.2,158.4,14.2z M153.4,19c0-1.6,0.6-3.1,1.8-4.3c1.2-1.2,2.6-1.8,4.2-1.8
	c1.6,0,2.8,0.5,3.6,1.6c0.8,1.1,1.2,2.4,1.2,3.9c0,1.7-0.6,3.1-1.8,4.4c-1.2,1.2-2.6,1.8-4.1,1.8c-1.5,0-2.7-0.5-3.5-1.6
	C153.8,22,153.4,20.6,153.4,19L153.4,19z M149.3,8.5v4.3c0.2,0,0.4,0,0.6,0c0.2,0,0.4,0,0.5,0c0.2,0,0.4,0,0.5,0c0.2,0,0.4,0,0.6,0
	c-0.1,0.3-0.3,0.5-0.4,0.6c-0.2,0.2-0.4,0.3-0.6,0.3c-0.3,0.1-0.5,0.2-0.8,0.2c-0.2,0-0.4,0-0.4,0c0,0,0,0,0,0v8.4c0,0,0,0,0,0.1
	c0,0,0.1,0.1,0.1,0.1c0,0.1,0.1,0.1,0.2,0.1c0.1,0,0.2,0,0.3,0c0.2,0,0.5-0.1,0.9-0.3c0.4-0.2,0.8-0.5,1.4-1.1
	c-0.3,0.5-0.6,0.9-1,1.3c-0.4,0.4-0.8,0.8-1.2,1c-0.3,0.2-0.6,0.4-0.9,0.6c-0.3,0.1-0.6,0.2-0.9,0.2c-0.4,0-0.7-0.2-1-0.6
	c-0.3-0.4-0.4-0.9-0.4-1.4V14c-0.2,0-0.3,0-0.4,0s-0.2,0-0.4,0c-0.1,0-0.3,0-0.4,0s-0.3,0-0.4,0c0-0.2,0-0.3,0.1-0.4
	c0.1-0.1,0.2-0.2,0.3-0.3c0.3-0.2,0.7-0.5,1.2-0.9c0.5-0.4,1.1-1,1.6-2c0.1-0.3,0.3-0.5,0.4-0.8C149.1,9.3,149.2,8.9,149.3,8.5
	L149.3,8.5z M138.8,14.2c-0.7,0-1.3,0.3-1.8,0.9c-0.5,0.6-0.7,1.3-0.7,2.3c0,0.3,0,0.7,0.1,1.1c0,0.5,0.1,1,0.3,1.4
	c0.2,0.8,0.5,1.5,1,2.1c0.4,0.6,1.1,1,1.9,1c0.7,0,1.4-0.3,1.8-0.9c0.5-0.6,0.7-1.4,0.7-2.4c0-0.3,0-0.6,0-1c0-0.3-0.1-0.7-0.1-1
	c-0.2-0.9-0.5-1.8-1-2.5C140.4,14.6,139.7,14.2,138.8,14.2z M133.8,19c0-1.6,0.6-3.1,1.8-4.3c1.2-1.2,2.6-1.8,4.2-1.8
	c1.6,0,2.8,0.5,3.6,1.6c0.8,1.1,1.2,2.4,1.2,3.9c0,1.7-0.6,3.1-1.8,4.4c-1.2,1.2-2.6,1.8-4.1,1.8c-1.5,0-2.7-0.5-3.5-1.6
	C134.2,22,133.8,20.6,133.8,19L133.8,19z M115.9,19.3c-0.2,0-0.5,0.1-0.9,0.1c-0.4,0.1-0.9,0.2-1.4,0.4c-0.6,0.3-1.2,0.7-1.7,1.2
	c-0.5,0.6-0.8,1.4-0.8,2.4c0,1.6,0.6,2.9,1.9,4s2.8,1.7,4.5,1.7c2,0,3.4-0.6,4.4-1.8s1.6-2.5,1.8-3.8c0-0.2,0.1-0.4,0.1-0.6
	c0-0.2,0.1-0.4,0.1-0.6v-3H115.9z M117.9,6.9c0.8,0,1.5,0,2.3,0c0.7,0,1.5,0,2.2,0c3.5,0,6.4,0,8.8,0c2.4,0,4-0.2,4.7-0.5
	c-0.3,0.5-0.7,0.8-1.1,1.2c-0.4,0.3-0.8,0.6-1.3,0.8c-0.9,0.4-1.7,0.7-2.4,0.8c-0.8,0.1-1.2,0.2-1.5,0.2l-10,0c0,0,0.4,0.2,1.2,0.5
	c0.8,0.3,1.6,0.7,2.6,1.3c0.5,0.3,1,0.7,1.4,1.1c0.5,0.4,0.9,0.8,1.2,1.3c0,0,0.1,0.1,0.1,0.1c0,0,0,0.1,0.1,0.1
	c0.6,0.9,0.9,1.7,1.1,2.4c0.1,0.7,0.2,1.1,0.2,1.1c0.3,0,0.6,0,0.8-0.1c0.3,0,0.6-0.1,0.9-0.2c0.8-0.2,1.5-0.5,2.2-1
	c0.7-0.5,1.3-1.2,1.7-2.2l-1.6,6.8c-0.1-0.2-0.1-0.3-0.2-0.5c0-0.2-0.1-0.3-0.1-0.5c0,0,0-0.1,0-0.1c0,0,0-0.1,0-0.1
	c-0.1-0.2-0.1-0.3-0.2-0.5c-0.1-0.2-0.1-0.4-0.2-0.6c-0.9,0.3-1.6,0.5-2.2,0.7c-0.6,0.2-0.9,0.2-0.9,0.2s0,0,0,0.1c0,0,0,0.1,0,0.1
	c0,0.3,0,0.7,0,1.4c0,0.7-0.1,1.3-0.2,2.1c-0.1,0.4-0.2,0.7-0.3,1.1c-0.1,0.3-0.2,0.7-0.4,1c-0.1,0.2-0.2,0.4-0.3,0.6
	c-0.1,0.2-0.3,0.4-0.4,0.6c-0.7,1-1.7,1.8-3.1,2.6c-1.4,0.8-3.2,1.2-5.5,1.2c-3.3,0-5.3-0.6-6.1-1.8c-0.8-1.2-1.2-2.6-1.2-4.1
	c0-2.5,0.8-4.2,2.5-5.2c1.7-1,3.6-1.5,5.7-1.5h5.7c-0.6-2.8-1.7-4.7-3.1-5.8c-1.5-1.1-3.2-1.7-5.1-1.7c-2,0-3.4,0.5-4.5,1.4
	c-1,0.9-1.9,2.1-2.6,3.6c0-2.4,0.9-4.2,2.8-5.7c1.9-1.4,3.9-2.2,6.1-2.3c0.1,0,0.2,0,0.2,0S117.8,6.9,117.9,6.9L117.9,6.9z
	 M95.7,14.5c-0.6,0-1.1,0.4-1.5,1.1c-0.4,0.7-0.7,1.6-0.7,2.5c0,0.1,0,0.1,0,0.2c0,0.1,0,0.2,0,0.2c0,0.3,0.1,0.6,0.2,1
	s0.2,0.6,0.4,0.9c0.1-0.1,0.4-0.4,0.6-0.6c0.3-0.3,0.6-0.6,0.9-0.9c0.1-0.1,0.2-0.2,0.3-0.3c0.1-0.1,0.2-0.2,0.3-0.3
	c0.3-0.3,0.6-0.7,0.8-1c0.2-0.3,0.3-0.6,0.3-0.8c0-0.1,0-0.2-0.1-0.4c0-0.2-0.1-0.3-0.2-0.5c-0.1-0.3-0.3-0.6-0.5-0.8
	C96.3,14.6,96.1,14.5,95.7,14.5z M91.1,19.8c0-2.2,0.6-3.8,1.7-5c1.1-1.2,2.6-1.8,4.5-1.8c0.3,0,0.6,0,0.9,0.1
	c0.3,0,0.5,0.1,0.8,0.2c0.3,0.1,0.6,0.3,0.9,0.6c0.3,0.2,0.7,0.6,1.1,1l-6.6,6.6c0.2,0.4,0.5,0.7,0.8,0.9c0.3,0.2,0.5,0.3,0.8,0.4
	c0.3,0.1,0.5,0.1,0.7,0.1c0.2,0,0.5,0,0.7,0c0.2,0,0.4,0,0.6-0.1c0.2-0.1,0.4-0.1,0.6-0.2c0.2-0.1,0.3-0.1,0.5-0.2
	c0.2-0.1,0.3-0.2,0.4-0.2c0.3-0.2,0.6-0.3,0.9-0.5c0.2-0.2,0.3-0.2,0.3-0.2c-0.7,1.1-1.5,1.9-2.4,2.4c-0.9,0.5-1.9,0.8-3,0.8
	c-1.4,0-2.4-0.3-3-0.9c-0.5-0.6-0.9-1.3-1-2c-0.1-0.3-0.1-0.6-0.1-0.9C91.1,20.4,91.1,20.1,91.1,19.8C91.1,19.8,91.1,19.8,91.1,19.8
	C91.1,19.8,91.1,19.8,91.1,19.8L91.1,19.8z M85.6,14.5c0.1-0.1,0.1-0.2,0.3-0.4c0.1-0.2,0.3-0.4,0.5-0.6c0.1-0.1,0.2-0.3,0.3-0.4
	c0.1-0.1,0.2-0.2,0.4-0.4c0.1-0.1,0.3-0.2,0.4-0.3c0.1-0.1,0.3-0.1,0.4-0.1c0.1,0,0.2,0.1,0.4,0.2c0.2,0.1,0.4,0.3,0.6,0.6
	c0.3,0.3,0.5,0.7,0.8,1.2c0.2,0.5,0.3,1,0.3,1.5c0,0.6-0.3,1.4-0.9,2.3c-0.6,1-1.2,2-1.9,3.2c-0.3,0.5-0.6,1.1-0.9,1.7
	c-0.3,0.6-0.6,1.1-0.8,1.7c-1-1.5-1.7-2.9-2.3-4.1c-0.5-1.3-1-2.3-1.5-3.2c-0.3-0.6-0.7-1.1-1.1-1.5c-0.4-0.4-0.8-0.5-1.4-0.5
	c-0.1,0-0.2,0-0.4,0.1c-0.2,0.1-0.5,0.2-0.7,0.2c-0.1,0-0.2,0.1-0.3,0.1c-0.1,0-0.2,0.1-0.3,0.1c-0.1,0-0.1,0.1-0.2,0.1
	c-0.1,0-0.1,0.1-0.2,0.1c0.1-0.2,0.3-0.4,0.5-0.7c0.2-0.3,0.4-0.5,0.7-0.8c0.1-0.1,0.3-0.3,0.4-0.4c0.2-0.2,0.3-0.3,0.5-0.4
	c0.4-0.3,0.7-0.6,1.1-0.8c0.3-0.2,0.6-0.3,0.8-0.3c0.5,0,1,0.4,1.5,1.1c0.5,0.7,0.9,1.5,1.4,2.5c0.1,0.2,0.2,0.4,0.3,0.6
	c0.1,0.2,0.2,0.4,0.3,0.6c0.3,0.7,0.7,1.4,1,2.1c0.3,0.7,0.7,1.3,1.1,1.7c0.1-0.1,0.1-0.2,0.2-0.4c0.1-0.2,0.2-0.4,0.3-0.6
	c0.1-0.3,0.3-0.7,0.4-1.2c0.1-0.4,0.2-0.9,0.2-1.4c0,0,0-0.1,0-0.1s0-0.1,0-0.1c0-0.8-0.2-1.4-0.6-1.8
	C86.7,15.4,86.2,14.9,85.6,14.5L85.6,14.5z M71.9,9.2c0-0.7,0.2-1.2,0.6-1.4c0.4-0.2,0.8-0.4,1.3-0.4c0.4,0,0.8,0.2,1.1,0.5
	c0.3,0.3,0.5,0.8,0.5,1.4c0,0.1,0,0.2-0.1,0.3c0,0.1-0.1,0.2-0.2,0.4c-0.1,0.2-0.3,0.4-0.4,0.6c-0.2,0.2-0.4,0.4-0.5,0.6
	c-0.2,0.2-0.4,0.3-0.6,0.4c-0.2,0.1-0.4,0.2-0.5,0.2c-0.3,0-0.5-0.2-0.7-0.5c-0.2-0.3-0.3-0.7-0.4-1.1c0-0.2,0-0.3-0.1-0.5
	C71.9,9.5,71.9,9.4,71.9,9.2L71.9,9.2z M70.8,14.9c0-0.1,0.1-0.2,0.3-0.4c0.1-0.2,0.3-0.4,0.5-0.6c0.2-0.2,0.5-0.4,0.8-0.6
	c0.3-0.2,0.6-0.4,0.9-0.4c0.1,0,0.2,0,0.3-0.1c0.1,0,0.2,0,0.3,0c0.5,0,0.9,0.2,1.1,0.5c0.2,0.3,0.4,0.7,0.4,1.1c0,0.1,0,0.2,0,0.3
	c0,0.1,0,0.2,0,0.3v7.4c0.1,0.3,0.1,0.5,0.2,0.6c0.1,0.1,0.2,0.2,0.3,0.2c0.1,0,0.2,0,0.3-0.1c0.1,0,0.2-0.1,0.3-0.2
	c0,0,0.1-0.1,0.1-0.1c0.1,0,0.1-0.1,0.2-0.1c0.1-0.1,0.1-0.1,0.2-0.2c0.1-0.1,0.1-0.1,0.2-0.1c-0.6,1.1-1.2,1.7-1.7,1.9
	c-0.5,0.2-0.9,0.3-1.1,0.3c0,0,0,0,0,0c0,0,0,0,0,0c-0.5,0-0.9-0.2-1.1-0.6c-0.3-0.4-0.4-0.9-0.4-1.4c0,0,0,0,0,0c0,0,0,0,0,0v-8
	c0,0,0,0,0,0c0,0-0.1-0.1-0.1-0.1c0,0-0.1,0-0.2-0.1c-0.1,0-0.2,0-0.3,0c-0.1,0-0.3,0.1-0.6,0.1C71.4,14.5,71.1,14.7,70.8,14.9
	L70.8,14.9z M67.1,8.5v4.3c0.2,0,0.4,0,0.6,0c0.2,0,0.4,0,0.5,0c0.2,0,0.4,0,0.5,0c0.2,0,0.4,0,0.6,0c-0.1,0.3-0.3,0.5-0.5,0.6
	c-0.2,0.2-0.4,0.3-0.6,0.3c-0.3,0.1-0.5,0.2-0.8,0.2c-0.2,0-0.4,0-0.4,0c0,0,0,0,0,0v8.4c0,0,0,0,0,0.1c0,0,0.1,0.1,0.1,0.1
	c0,0.1,0.1,0.1,0.2,0.1c0.1,0,0.2,0,0.3,0c0.2,0,0.5-0.1,0.9-0.3c0.4-0.2,0.8-0.5,1.4-1.1c-0.3,0.5-0.6,0.9-1,1.3
	c-0.4,0.4-0.8,0.8-1.2,1c-0.3,0.2-0.6,0.4-0.9,0.6c-0.3,0.1-0.6,0.2-0.9,0.2c-0.4,0-0.7-0.2-1-0.6c-0.3-0.4-0.4-0.9-0.4-1.4V14
	c-0.2,0-0.3,0-0.4,0c-0.1,0-0.2,0-0.4,0c-0.1,0-0.3,0-0.4,0c-0.1,0-0.3,0-0.4,0c0-0.2,0-0.3,0.1-0.4c0.1-0.1,0.2-0.2,0.3-0.3
	c0.3-0.2,0.7-0.5,1.2-0.9c0.5-0.4,1.1-1,1.6-2c0.1-0.3,0.3-0.5,0.4-0.8C66.8,9.3,67,8.9,67.1,8.5L67.1,8.5z M56.6,13.8
	c-1,0.6-1.8,1.3-2.2,2c-0.5,0.7-0.7,1.7-0.7,2.9c0,0.1,0,0.1,0,0.1c0,0,0,0.1,0,0.1c0,0.6,0.1,1.1,0.4,1.5c0.2,0.5,0.8,0.7,1.7,0.7
	c0.5,0,1-0.1,1.4-0.4c0.4-0.3,0.8-0.6,1.1-1v-6H56.6z M51.1,20.7c0-2.2,0.4-3.8,1.1-4.8c0.7-1,1.5-1.7,2.4-2.2
	c0.3-0.2,0.7-0.3,1-0.5c0.3-0.1,0.7-0.2,0.9-0.4c0,0,0,0,0,0c0,0,0,0,0,0l4.3,0V23c0.3,0.1,0.6,0.2,0.7,0.2c0.1,0.1,0.2,0.1,0.3,0.1
	c0,0,0,0,0,0s0,0,0,0c0.1,0,0.1-0.1,0.2-0.2c0.1-0.1,0.3-0.2,0.5-0.3c-0.6,0.6-1,1-1.2,1.2c-0.2,0.3-0.5,0.4-0.6,0.5
	c-0.1,0.1-0.2,0.1-0.4,0.1c-0.1,0-0.3,0-0.5,0c0,0,0,0,0,0c0,0,0,0,0,0c-0.6,0-1-0.2-1.2-0.6c-0.2-0.4-0.3-0.9-0.4-1.5
	c0-0.1,0-0.2,0-0.3c0-0.1,0-0.2,0-0.2c0-0.1,0-0.3-0.1-0.4c0-0.1-0.1-0.3-0.1-0.4c-0.1,0.1-0.3,0.4-0.6,0.7c-0.3,0.3-0.6,0.6-1,1
	c-0.3,0.3-0.6,0.5-0.9,0.8c-0.3,0.2-0.6,0.5-0.9,0.6c-0.2,0.1-0.5,0.2-0.7,0.3c-0.2,0.1-0.5,0.1-0.7,0.1c-0.7,0-1.2-0.3-1.7-1
	C51.3,22.9,51.1,22,51.1,20.7L51.1,20.7z M44.6,14.5c-0.6,0-1.1,0.4-1.5,1.1c-0.4,0.7-0.7,1.6-0.7,2.5c0,0.1,0,0.1,0,0.2
	c0,0.1,0,0.2,0,0.2c0,0.3,0.1,0.6,0.2,1s0.2,0.6,0.4,0.9c0.1-0.1,0.4-0.4,0.6-0.6c0.3-0.3,0.6-0.6,0.9-0.9c0.1-0.1,0.2-0.2,0.3-0.3
	c0.1-0.1,0.2-0.2,0.3-0.3c0.3-0.3,0.6-0.7,0.8-1c0.2-0.3,0.3-0.6,0.3-0.8c0-0.1,0-0.2-0.1-0.4c0-0.2-0.1-0.3-0.2-0.5
	c-0.1-0.3-0.3-0.6-0.5-0.8C45.2,14.6,45,14.5,44.6,14.5z M40,19.8c0-2.2,0.6-3.8,1.7-5c1.1-1.2,2.6-1.8,4.5-1.8c0.3,0,0.6,0,0.9,0.1
	c0.3,0,0.5,0.1,0.8,0.2c0.3,0.1,0.6,0.3,0.9,0.6c0.3,0.2,0.7,0.6,1.1,1l-6.6,6.6c0.2,0.4,0.5,0.7,0.8,0.9c0.3,0.2,0.5,0.3,0.8,0.4
	c0.3,0.1,0.5,0.1,0.7,0.1c0.2,0,0.5,0,0.7,0c0.2,0,0.4,0,0.6-0.1c0.2-0.1,0.4-0.1,0.6-0.2c0.2-0.1,0.3-0.1,0.5-0.2
	c0.2-0.1,0.3-0.2,0.4-0.2c0.3-0.2,0.6-0.3,0.9-0.5c0.2-0.2,0.3-0.2,0.3-0.2c-0.7,1.1-1.5,1.9-2.4,2.4c-0.9,0.5-1.9,0.8-3,0.8
	c-1.4,0-2.4-0.3-3-0.9c-0.5-0.6-0.9-1.3-1-2C40.1,21.3,40,21,40,20.7C40,20.4,40,20.1,40,19.8C40,19.8,40,19.8,40,19.8
	C40,19.8,40,19.8,40,19.8L40,19.8z M27.7,15.9C27.7,15.9,27.7,15.9,27.7,15.9C27.7,15.9,27.7,15.8,27.7,15.9c0-0.2,0.1-0.4,0.3-0.6
	c0.2-0.3,0.4-0.5,0.7-0.8c0.1-0.1,0.2-0.2,0.4-0.3c0.1-0.1,0.2-0.2,0.4-0.3c0.3-0.3,0.6-0.5,0.9-0.7c0.3-0.2,0.5-0.3,0.7-0.3
	c0.6,0,0.9,0.3,1,1c0.1,0.7,0.1,1.6,0.1,2.9c0,0.1,0,0.1,0,0.2c0,0.1,0,0.2,0,0.2c0,0,0.1-0.2,0.4-0.7c0.3-0.4,0.7-0.9,1.2-1.5
	c0.3-0.3,0.6-0.6,0.9-1c0.3-0.3,0.7-0.6,1-0.8c0.2-0.1,0.4-0.3,0.6-0.3c0.2-0.1,0.4-0.1,0.6-0.1c0.5,0,0.9,0.2,1.2,0.5
	c0.3,0.4,0.4,0.8,0.4,1.3c0,0.3-0.1,0.7-0.3,1.1c-0.2,0.4-0.5,0.8-0.8,1.1c-0.1,0.2-0.3,0.4-0.5,0.6c-0.2,0.2-0.3,0.4-0.5,0.5
	c-0.1,0.1-0.3,0.3-0.4,0.4c-0.1,0.1-0.3,0.3-0.4,0.4c0.1-0.2,0.2-0.4,0.2-0.8c0.1-0.3,0.1-0.7,0.1-1c0-0.1,0-0.1,0-0.2
	c0,0,0-0.1,0-0.1c0-0.4-0.1-0.7-0.2-1c-0.1-0.3-0.4-0.4-0.7-0.4c-0.1,0-0.3,0.1-0.6,0.3c-0.2,0.2-0.5,0.4-0.7,0.7
	c-0.1,0.1-0.1,0.1-0.2,0.2c-0.1,0.1-0.1,0.2-0.2,0.2c-0.3,0.3-0.6,0.7-0.8,1c-0.2,0.3-0.3,0.4-0.3,0.4v4.7c0,0-0.1,0.1-0.2,0.3
	c-0.2,0.2-0.4,0.3-0.6,0.5c-0.2,0.2-0.5,0.3-0.8,0.5c-0.3,0.1-0.6,0.2-0.9,0.3v-9.2c0,0,0,0,0,0c0,0-0.1-0.1-0.1-0.1
	c-0.1,0-0.1-0.1-0.2-0.1c-0.1,0-0.2-0.1-0.3-0.1c-0.1,0-0.3,0.1-0.5,0.2C28.3,15.4,28,15.6,27.7,15.9L27.7,15.9z M22.1,6.9
	c-0.2,0-0.5,0-0.8,0c-0.3,0-0.7,0-1,0.1c-0.6,0.1-1.1,0.3-1.6,0.6C18.2,7.9,18,8.5,18,9.2v5.4h0.2L25,7.6c-0.2-0.3-0.6-0.5-1.1-0.5
	C23.4,6.9,22.8,6.9,22.1,6.9L22.1,6.9z M4.3,13.8c0-2.2,0.8-4,2.5-5.3c1.6-1.3,3.5-2,5.5-2l18,0c-1.3,0.3-2.3,0.7-3.1,1.2
	c-0.7,0.5-1.3,1.1-1.9,1.7c-0.3,0.3-0.5,0.5-0.8,0.8c-0.3,0.3-0.5,0.6-0.8,0.9c-1.6,1.6-2.6,2.6-2.9,3.1c-0.3,0.4-0.5,0.8-0.5,1
	c0,0,0,0,0,0c0,0,0,0,0,0c0,0.1,0.4,0.6,1.1,1.6c0.7,1,1.6,2,2.5,3.1c0,0,0,0.1,0.1,0.1c0,0,0,0.1,0.1,0.1c0.9,1.1,1.7,2.1,2.5,3
	c0.8,0.9,1.2,1.4,1.3,1.6c0.3,0.3,0.7,0.9,1.3,1.6c0.6,0.8,1.3,1.6,2.1,2.4c0.9,0.9,1.9,1.7,2.9,2.5c1.1,0.8,2.1,1.3,3.2,1.7
	c0.3,0.1,0.5,0.1,0.8,0.2c0.3,0,0.5,0.1,0.8,0.1c1.2,0,2.1-0.4,2.8-1.1c0.6-0.7,0.9-1.6,0.9-2.5c0-0.3-0.1-0.6-0.1-0.8
	c-0.1-0.2-0.2-0.4-0.3-0.5c-0.1-0.1-0.1-0.1-0.2-0.2c-0.1-0.1-0.1-0.1-0.2-0.2c0,0,0-0.1-0.1-0.1c0,0,0-0.1,0-0.1
	c0-0.2,0.1-0.3,0.2-0.4c0.1-0.1,0.2-0.2,0.3-0.2c0.1,0,0.2-0.1,0.3-0.1c0.1,0,0.1,0,0.2,0c0.6,0,1,0.2,1.2,0.8
	c0.2,0.5,0.4,1.1,0.4,1.7c0,0,0,0,0,0.1c0,0,0,0.1,0,0.1c0,1.1-0.5,2.1-1.4,3c-0.9,0.9-2.1,1.4-3.6,1.4c-2,0-3.8-0.6-5.5-1.7
	c-1.6-1.1-3.3-2.5-4.9-4.1c-0.4-0.4-0.8-0.8-1.2-1.2c-0.4-0.4-0.8-0.9-1.2-1.3c-0.3-0.4-0.7-0.7-1-1.1c-0.3-0.3-0.7-0.7-1.1-1
	c-1-1-1.8-1.8-2.5-2.6c-0.7-0.8-1.4-1.6-2-2.3c-0.2-0.2-0.4-0.5-0.7-0.7c-0.2-0.2-0.4-0.5-0.7-0.8c-0.1-0.1-0.1-0.1-0.2-0.2
	c-0.1-0.1-0.1-0.1-0.2-0.2v6.1c0,0.8,0.1,1.3,0.4,1.7c0.3,0.4,0.5,0.7,0.8,0.8c0.2,0.1,0.4,0.2,0.6,0.3c0.2,0.1,0.3,0.1,0.5,0.1
	h-9.3c1.4-0.3,2.4-0.7,2.8-1.2c0.4-0.5,0.6-1.1,0.6-1.7V9.2c0-0.7-0.2-1.2-0.6-1.5c-0.4-0.3-0.9-0.5-1.3-0.5c-0.1,0-0.2,0-0.3,0
	c-0.1,0-0.2,0-0.3,0c-1.9,0-3.4,0.5-4.5,1.5c-1.1,1-1.6,2.5-1.6,4.4c0,1.6,0.4,3.1,1.1,4.5c0.8,1.4,2.1,2.4,4.1,3
	c-2.5,0-4.2-0.7-5.2-2.1C4.8,17.1,4.3,15.6,4.3,13.8L4.3,13.8z"/>
<path class="st1" d="M169.4,14.1c0.2,0,0.4,0,0.7,0.1c0.2,0,0.4,0.1,0.7,0.1c0.2,0.1,0.4,0.1,0.7,0.1c0.2,0,0.4,0,0.7,0
	c0.2,0,0.5,0,0.7-0.1c0.2,0,0.5-0.1,0.8-0.2c-0.3,0.6-0.6,1.1-0.8,1.6c-0.2,0.5-0.3,0.9-0.4,1.2c-0.3-0.3-0.6-0.5-0.9-0.7
	c-0.3-0.2-0.5-0.4-0.8-0.5c-0.3-0.1-0.6-0.2-0.9-0.3c-0.3-0.1-0.7-0.1-1.1-0.1c-0.8,0-1.3,0.1-1.6,0.3c-0.3,0.2-0.4,0.5-0.4,0.8
	c0,0.4,0.2,0.7,0.5,0.9c0.4,0.2,0.8,0.5,1.3,0.7c0.3,0.1,0.5,0.2,0.8,0.3c0.3,0.1,0.5,0.2,0.8,0.3c0.9,0.4,1.6,0.8,2.4,1.4
	s1.1,1.4,1.1,2.5c0,1.2-0.4,2.1-1.1,2.5c-0.7,0.4-1.5,0.7-2.4,0.7c-0.2,0-0.4,0-0.7,0c-0.2,0-0.5,0-0.7,0c-1.4,0-2.3-0.2-2.7-0.6
	c-0.4-0.4-0.6-1.6-0.6-3.6c0.1,0.1,0.2,0.3,0.2,0.4s0.2,0.3,0.3,0.4c0.4,0.7,0.9,1.3,1.5,1.8c0.6,0.5,1.5,0.8,2.6,0.8
	c0.7,0,1.2-0.1,1.4-0.4c0.3-0.2,0.4-0.7,0.4-1.3c0-0.5-0.2-1-0.7-1.3c-0.4-0.3-1-0.6-1.6-0.9c-0.2-0.1-0.3-0.1-0.5-0.2
	c-0.2-0.1-0.3-0.1-0.5-0.2c-0.8-0.4-1.5-0.8-2.2-1.4c-0.7-0.6-1-1.3-1-2.4c0-1.1,0.4-1.9,1.2-2.3C167.5,14.4,168.3,14.2,169.4,14.1
	C169.3,14.1,169.3,14.1,169.4,14.1C169.3,14.1,169.3,14.1,169.4,14.1L169.4,14.1z"/>
<g>
	<path class="st2" d="M10.9,36.9h0.9c0.1,0,0.2,0,0.2,0.1c0.1,0,0.1,0.1,0.1,0.2l0.9,6.1c0,0.1,0,0.1,0,0.2c0,0.1,0,0.2,0,0.2
		c0,0.1,0,0.2,0,0.3c0-0.1,0.1-0.3,0.1-0.4c0-0.1,0.1-0.2,0.1-0.3l2.6-6.1c0-0.1,0.1-0.1,0.2-0.2c0.1-0.1,0.2-0.1,0.3-0.1h0.3
		c0.1,0,0.2,0,0.2,0.1s0.1,0.1,0.1,0.2l1.1,6.1c0,0.1,0,0.2,0,0.3c0,0.1,0,0.2,0,0.4c0-0.1,0.1-0.2,0.1-0.4c0-0.1,0.1-0.2,0.1-0.3
		l2.4-6.1c0-0.1,0.1-0.1,0.2-0.2c0.1-0.1,0.2-0.1,0.3-0.1H22l-3.5,8.6h-1l-1.2-6.6c0-0.1,0-0.1,0-0.2c0-0.1,0-0.2,0-0.2
		c0,0.1-0.1,0.2-0.1,0.2c0,0.1-0.1,0.1-0.1,0.2l-2.8,6.6h-1L10.9,36.9z"/>
	<path class="st2" d="M26.1,40.8c0,0.3-0.1,0.5-0.2,0.7c-0.1,0.2-0.3,0.4-0.6,0.6c-0.3,0.2-0.7,0.3-1.2,0.5s-1.2,0.2-1.9,0.3
		c0,0,0,0.1,0,0.1s0,0.1,0,0.1c0,0.5,0.1,0.9,0.4,1.2c0.2,0.3,0.6,0.4,1.1,0.4c0.2,0,0.4,0,0.5-0.1c0.1,0,0.3-0.1,0.4-0.1
		s0.2-0.1,0.3-0.2c0.1-0.1,0.2-0.1,0.2-0.2c0.1-0.1,0.1-0.1,0.2-0.1c0.1,0,0.1-0.1,0.2-0.1c0.1,0,0.1,0,0.2,0.1l0.3,0.3
		c-0.2,0.2-0.4,0.4-0.6,0.5s-0.4,0.3-0.6,0.4c-0.2,0.1-0.4,0.2-0.6,0.2c-0.2,0-0.5,0.1-0.7,0.1c-0.3,0-0.7-0.1-0.9-0.2
		c-0.3-0.1-0.5-0.3-0.7-0.5s-0.3-0.5-0.4-0.8c-0.1-0.3-0.2-0.6-0.2-1c0-0.3,0-0.6,0.1-0.9c0.1-0.3,0.2-0.6,0.3-0.9
		c0.1-0.3,0.3-0.5,0.5-0.8c0.2-0.2,0.4-0.4,0.6-0.6c0.2-0.2,0.5-0.3,0.8-0.4c0.3-0.1,0.6-0.1,0.9-0.1c0.3,0,0.6,0,0.8,0.1
		c0.2,0.1,0.4,0.2,0.6,0.3c0.1,0.1,0.3,0.3,0.3,0.4C26,40.4,26.1,40.6,26.1,40.8z M24.2,40.1c-0.3,0-0.5,0.1-0.7,0.2
		s-0.4,0.2-0.6,0.4c-0.2,0.2-0.3,0.4-0.4,0.6c-0.1,0.2-0.2,0.5-0.3,0.8c0.6-0.1,1.1-0.2,1.5-0.3c0.4-0.1,0.7-0.2,0.9-0.3
		c0.2-0.1,0.3-0.2,0.4-0.4c0.1-0.1,0.1-0.3,0.1-0.4c0-0.1,0-0.1,0-0.2s-0.1-0.1-0.2-0.2s-0.2-0.1-0.3-0.2
		C24.5,40.2,24.4,40.1,24.2,40.1z"/>
	<path class="st2" d="M33,45c-0.2,0.2-0.4,0.3-0.6,0.4c-0.2,0.1-0.4,0.2-0.6,0.2c-0.2,0-0.4,0.1-0.7,0.1c-0.4,0-0.7-0.1-0.9-0.2
		c-0.3-0.1-0.5-0.3-0.7-0.5c-0.2-0.2-0.3-0.5-0.4-0.8c-0.1-0.3-0.1-0.6-0.1-1c0-0.5,0.1-1,0.2-1.4s0.4-0.9,0.6-1.2
		c0.3-0.3,0.6-0.6,1-0.8s0.8-0.3,1.3-0.3c0.4,0,0.7,0.1,1,0.2c0.3,0.1,0.5,0.3,0.7,0.6l-0.3,0.4c0,0-0.1,0.1-0.1,0.1
		c0,0-0.1,0-0.1,0c-0.1,0-0.1,0-0.2-0.1c-0.1,0-0.1-0.1-0.2-0.2c-0.1-0.1-0.2-0.1-0.3-0.2c-0.1,0-0.3-0.1-0.5-0.1
		c-0.3,0-0.5,0.1-0.8,0.2s-0.5,0.4-0.6,0.6c-0.2,0.3-0.3,0.6-0.4,0.9c-0.1,0.4-0.2,0.7-0.2,1.1c0,0.2,0,0.5,0.1,0.7
		c0.1,0.2,0.1,0.4,0.3,0.5c0.1,0.1,0.2,0.3,0.4,0.3s0.4,0.1,0.6,0.1c0.2,0,0.3,0,0.5-0.1c0.1,0,0.3-0.1,0.4-0.1
		c0.1-0.1,0.2-0.1,0.3-0.2c0.1-0.1,0.2-0.1,0.2-0.2c0.1-0.1,0.1-0.1,0.2-0.1C33,44,33,44,33.1,44c0.1,0,0.1,0,0.2,0.1l0.3,0.3
		C33.3,44.7,33.1,44.9,33,45z"/>
	<path class="st2" d="M34.3,45.5l0.7-6.1h0.5c0.1,0,0.2,0,0.3,0.1c0.1,0.1,0.1,0.1,0.1,0.2c0,0,0,0,0,0.1c0,0,0,0.1,0,0.1
		c0,0,0,0.1,0,0.1s0,0,0,0l-0.1,1.1c0.3-0.6,0.6-1,0.9-1.3c0.3-0.3,0.7-0.5,1-0.5c0.2,0,0.3,0,0.5,0.1l-0.2,1
		c-0.2-0.1-0.4-0.1-0.5-0.1c-0.4,0-0.7,0.2-1,0.6c-0.3,0.4-0.6,1-0.8,1.7l-0.3,2.8H34.3z"/>
	<path class="st2" d="M43.1,40.8c0,0.3-0.1,0.5-0.2,0.7c-0.1,0.2-0.3,0.4-0.6,0.6c-0.3,0.2-0.7,0.3-1.2,0.5s-1.2,0.2-1.9,0.3
		c0,0,0,0.1,0,0.1s0,0.1,0,0.1c0,0.5,0.1,0.9,0.4,1.2c0.2,0.3,0.6,0.4,1.1,0.4c0.2,0,0.4,0,0.5-0.1c0.1,0,0.3-0.1,0.4-0.1
		s0.2-0.1,0.3-0.2c0.1-0.1,0.2-0.1,0.2-0.2c0.1-0.1,0.1-0.1,0.2-0.1c0.1,0,0.1-0.1,0.2-0.1c0.1,0,0.1,0,0.2,0.1l0.3,0.3
		c-0.2,0.2-0.4,0.4-0.6,0.5s-0.4,0.3-0.6,0.4c-0.2,0.1-0.4,0.2-0.6,0.2c-0.2,0-0.5,0.1-0.7,0.1c-0.3,0-0.7-0.1-0.9-0.2
		c-0.3-0.1-0.5-0.3-0.7-0.5s-0.3-0.5-0.4-0.8c-0.1-0.3-0.2-0.6-0.2-1c0-0.3,0-0.6,0.1-0.9c0.1-0.3,0.2-0.6,0.3-0.9
		c0.1-0.3,0.3-0.5,0.5-0.8c0.2-0.2,0.4-0.4,0.6-0.6c0.2-0.2,0.5-0.3,0.8-0.4c0.3-0.1,0.6-0.1,0.9-0.1c0.3,0,0.6,0,0.8,0.1
		c0.2,0.1,0.4,0.2,0.6,0.3c0.1,0.1,0.3,0.3,0.3,0.4C43.1,40.4,43.1,40.6,43.1,40.8z M41.3,40.1c-0.3,0-0.5,0.1-0.7,0.2
		s-0.4,0.2-0.6,0.4c-0.2,0.2-0.3,0.4-0.4,0.6c-0.1,0.2-0.2,0.5-0.3,0.8c0.6-0.1,1.1-0.2,1.5-0.3c0.4-0.1,0.7-0.2,0.9-0.3
		c0.2-0.1,0.3-0.2,0.4-0.4c0.1-0.1,0.1-0.3,0.1-0.4c0-0.1,0-0.1,0-0.2s-0.1-0.1-0.2-0.2s-0.2-0.1-0.3-0.2
		C41.6,40.2,41.4,40.1,41.3,40.1z"/>
	<path class="st2" d="M48.2,45.5h-0.6c-0.1,0-0.2,0-0.3-0.1c0-0.1-0.1-0.2-0.1-0.3l0.1-1.2c-0.1,0.3-0.3,0.5-0.5,0.7
		c-0.2,0.2-0.3,0.4-0.5,0.5c-0.2,0.1-0.4,0.3-0.6,0.3c-0.2,0.1-0.4,0.1-0.6,0.1c-0.2,0-0.5,0-0.7-0.1c-0.2-0.1-0.4-0.2-0.5-0.4
		c-0.1-0.2-0.2-0.4-0.3-0.7c-0.1-0.3-0.1-0.6-0.1-0.9c0-0.4,0-0.7,0.1-1.1c0.1-0.3,0.2-0.7,0.4-1c0.2-0.3,0.4-0.6,0.6-0.8
		c0.2-0.3,0.5-0.5,0.8-0.7s0.6-0.3,0.9-0.4c0.3-0.1,0.7-0.2,1-0.2c0.3,0,0.5,0,0.8,0.1c0.2,0,0.5,0.1,0.7,0.2L48.2,45.5z M45.6,44.7
		c0.2,0,0.4-0.1,0.6-0.2c0.2-0.1,0.4-0.3,0.5-0.5c0.2-0.2,0.3-0.5,0.5-0.8c0.1-0.3,0.3-0.6,0.4-1l0.3-2.1c-0.1-0.1-0.2-0.1-0.3-0.1
		s-0.2,0-0.3,0c-0.2,0-0.5,0-0.7,0.1c-0.2,0.1-0.4,0.2-0.6,0.3s-0.4,0.3-0.5,0.5c-0.2,0.2-0.3,0.4-0.4,0.6c-0.1,0.2-0.2,0.5-0.3,0.7
		c-0.1,0.3-0.1,0.5-0.1,0.8C44.7,44.2,45,44.7,45.6,44.7z"/>
	<path class="st2" d="M50.4,44.4C50.4,44.4,50.4,44.3,50.4,44.4c0-0.1,0-0.2,0-0.3c0-0.1,0-0.2,0-0.3c0-0.1,0-0.3,0.1-0.5l0.4-3
		h-0.7c-0.1,0-0.1,0-0.1,0S50,40.2,50,40.2c0,0,0,0,0-0.1s0-0.1,0-0.1s0-0.1,0-0.1c0,0,0-0.1,0-0.1l0.9-0.1l0.5-1.9
		c0-0.1,0-0.1,0.1-0.1s0.1-0.1,0.2-0.1h0.6L52,39.6h1.6l-0.1,0.8h-1.6l-0.4,3c0,0.2,0,0.3,0,0.4c0,0.1,0,0.2,0,0.2s0,0.1,0,0.1
		s0,0,0,0.1c0,0.2,0,0.4,0.1,0.5c0.1,0.1,0.2,0.1,0.4,0.1c0.1,0,0.2,0,0.3,0c0.1,0,0.1-0.1,0.2-0.1c0.1,0,0.1-0.1,0.1-0.1
		c0,0,0.1,0,0.1,0s0.1,0,0.1,0c0,0,0,0,0.1,0.1l0.2,0.5c-0.2,0.2-0.4,0.3-0.7,0.4c-0.2,0.1-0.5,0.1-0.8,0.1c-0.4,0-0.7-0.1-0.9-0.3
		C50.5,45.1,50.4,44.8,50.4,44.4z"/>
	<path class="st2" d="M58.8,40.8c0,0.3-0.1,0.5-0.2,0.7c-0.1,0.2-0.3,0.4-0.6,0.6c-0.3,0.2-0.7,0.3-1.2,0.5s-1.2,0.2-1.9,0.3
		c0,0,0,0.1,0,0.1s0,0.1,0,0.1c0,0.5,0.1,0.9,0.4,1.2c0.2,0.3,0.6,0.4,1.1,0.4c0.2,0,0.4,0,0.5-0.1c0.1,0,0.3-0.1,0.4-0.1
		s0.2-0.1,0.3-0.2c0.1-0.1,0.2-0.1,0.2-0.2c0.1-0.1,0.1-0.1,0.2-0.1c0.1,0,0.1-0.1,0.2-0.1c0.1,0,0.1,0,0.2,0.1l0.3,0.3
		c-0.2,0.2-0.4,0.4-0.6,0.5s-0.4,0.3-0.6,0.4c-0.2,0.1-0.4,0.2-0.6,0.2c-0.2,0-0.5,0.1-0.7,0.1c-0.3,0-0.7-0.1-0.9-0.2
		c-0.3-0.1-0.5-0.3-0.7-0.5s-0.3-0.5-0.4-0.8c-0.1-0.3-0.2-0.6-0.2-1c0-0.3,0-0.6,0.1-0.9c0.1-0.3,0.2-0.6,0.3-0.9
		c0.1-0.3,0.3-0.5,0.5-0.8c0.2-0.2,0.4-0.4,0.6-0.6c0.2-0.2,0.5-0.3,0.8-0.4c0.3-0.1,0.6-0.1,0.9-0.1c0.3,0,0.6,0,0.8,0.1
		c0.2,0.1,0.4,0.2,0.6,0.3c0.1,0.1,0.3,0.3,0.3,0.4C58.8,40.4,58.8,40.6,58.8,40.8z M57,40.1c-0.3,0-0.5,0.1-0.7,0.2
		s-0.4,0.2-0.6,0.4c-0.2,0.2-0.3,0.4-0.4,0.6c-0.1,0.2-0.2,0.5-0.3,0.8c0.6-0.1,1.1-0.2,1.5-0.3c0.4-0.1,0.7-0.2,0.9-0.3
		c0.2-0.1,0.3-0.2,0.4-0.4c0.1-0.1,0.1-0.3,0.1-0.4c0-0.1,0-0.1,0-0.2s-0.1-0.1-0.2-0.2s-0.2-0.1-0.3-0.2
		C57.3,40.2,57.1,40.1,57,40.1z"/>
	<path class="st2" d="M63.4,40.4c0,0-0.1,0.1-0.1,0.1s-0.1,0-0.1,0c-0.1,0-0.1,0-0.2-0.1c-0.1,0-0.1-0.1-0.2-0.1
		c-0.1-0.1-0.2-0.1-0.3-0.1c-0.1,0-0.3-0.1-0.5-0.1c-0.2,0-0.3,0-0.5,0.1c-0.1,0.1-0.3,0.1-0.4,0.2c-0.1,0.1-0.2,0.2-0.2,0.3
		c-0.1,0.1-0.1,0.2-0.1,0.4c0,0.2,0.1,0.3,0.2,0.5s0.3,0.2,0.5,0.3c0.2,0.1,0.4,0.2,0.6,0.2c0.2,0.1,0.4,0.2,0.6,0.3
		c0.2,0.1,0.3,0.3,0.5,0.4c0.1,0.2,0.2,0.4,0.2,0.7c0,0.3-0.1,0.5-0.2,0.8c-0.1,0.3-0.3,0.5-0.5,0.7s-0.5,0.3-0.7,0.5
		c-0.3,0.1-0.6,0.2-1,0.2c-0.4,0-0.7-0.1-1-0.2c-0.3-0.1-0.5-0.3-0.7-0.5l0.3-0.4c0-0.1,0.1-0.1,0.1-0.1c0,0,0.1,0,0.2,0
		c0.1,0,0.1,0,0.2,0.1c0.1,0.1,0.1,0.1,0.2,0.2s0.2,0.1,0.4,0.2c0.1,0.1,0.3,0.1,0.6,0.1c0.2,0,0.4,0,0.5-0.1
		c0.2-0.1,0.3-0.1,0.4-0.2c0.1-0.1,0.2-0.2,0.3-0.4c0.1-0.1,0.1-0.3,0.1-0.4c0-0.2-0.1-0.4-0.2-0.5C62,43.1,61.8,43,61.6,43
		c-0.2-0.1-0.4-0.2-0.6-0.2c-0.2-0.1-0.4-0.2-0.6-0.3c-0.2-0.1-0.3-0.3-0.5-0.4c-0.1-0.2-0.2-0.4-0.2-0.7c0-0.3,0.1-0.5,0.2-0.7
		c0.1-0.2,0.2-0.4,0.4-0.6c0.2-0.2,0.4-0.3,0.7-0.4s0.6-0.2,0.9-0.2c0.4,0,0.7,0.1,1,0.2c0.3,0.1,0.5,0.3,0.7,0.5L63.4,40.4z"/>
	<path class="st2" d="M67.9,47.3c-0.1,0.2-0.2,0.2-0.4,0.2h-0.8l1.3-2.4l-1.6-5.7h0.9c0.1,0,0.1,0,0.2,0.1s0.1,0.1,0.1,0.2l1,3.8
		c0,0.1,0,0.2,0,0.3s0,0.2,0,0.3c0-0.1,0.1-0.2,0.1-0.3s0.1-0.2,0.1-0.3l1.9-3.8c0-0.1,0.1-0.1,0.1-0.2c0.1,0,0.1-0.1,0.2-0.1H72
		L67.9,47.3z"/>
	<path class="st2" d="M74.2,45.6c-0.3,0-0.6-0.1-0.9-0.2c-0.3-0.1-0.5-0.3-0.7-0.5s-0.4-0.5-0.5-0.8s-0.2-0.7-0.2-1.1
		c0-0.5,0.1-1,0.2-1.4c0.2-0.5,0.4-0.8,0.7-1.2c0.3-0.3,0.6-0.6,1-0.8c0.4-0.2,0.8-0.3,1.2-0.3c0.3,0,0.6,0.1,0.9,0.2
		c0.3,0.1,0.5,0.3,0.7,0.5c0.2,0.2,0.4,0.5,0.5,0.8c0.1,0.3,0.2,0.7,0.2,1.1c0,0.5-0.1,1-0.2,1.4s-0.4,0.8-0.7,1.2
		c-0.3,0.3-0.6,0.6-1,0.8C75,45.5,74.6,45.6,74.2,45.6z M74.3,44.8c0.3,0,0.6-0.1,0.8-0.2c0.2-0.2,0.4-0.4,0.6-0.6s0.3-0.6,0.4-0.9
		c0.1-0.3,0.1-0.7,0.1-1.1c0-0.6-0.1-1-0.3-1.3c-0.2-0.3-0.5-0.4-1-0.4c-0.3,0-0.6,0.1-0.8,0.2c-0.2,0.2-0.4,0.4-0.6,0.6
		s-0.3,0.6-0.4,0.9S73,42.7,73,43.1c0,0.6,0.1,1,0.3,1.3C73.5,44.6,73.8,44.8,74.3,44.8z"/>
	<path class="st2" d="M79.7,39.5l-0.5,3.9c0,0.1,0,0.2,0,0.2c0,0.1,0,0.1,0,0.2c0,0.3,0.1,0.6,0.2,0.7s0.3,0.2,0.6,0.2
		c0.2,0,0.4,0,0.6-0.1c0.2-0.1,0.4-0.2,0.6-0.4c0.2-0.2,0.4-0.4,0.5-0.7c0.2-0.3,0.3-0.5,0.4-0.9l0.4-3.2h1.1l-0.7,6.1h-0.5
		c-0.1,0-0.2,0-0.3-0.1s-0.1-0.1-0.1-0.3c0,0,0,0,0-0.1c0-0.1,0-0.1,0-0.2s0-0.2,0-0.2c0-0.1,0-0.1,0-0.1l0-0.5
		c-0.3,0.5-0.7,0.9-1.1,1.2c-0.4,0.3-0.8,0.4-1.2,0.4c-0.5,0-0.8-0.2-1.1-0.5s-0.4-0.8-0.4-1.3c0-0.1,0-0.2,0-0.2s0-0.2,0-0.3
		l0.5-3.9H79.7z"/>
	<path class="st2" d="M84.3,45.5l0.7-6.1h0.5c0.1,0,0.2,0,0.3,0.1c0.1,0.1,0.1,0.1,0.1,0.2c0,0,0,0,0,0.1c0,0,0,0.1,0,0.1
		c0,0,0,0.1,0,0.1s0,0,0,0l-0.1,1.1c0.3-0.6,0.6-1,0.9-1.3c0.3-0.3,0.7-0.5,1-0.5c0.2,0,0.3,0,0.5,0.1l-0.2,1
		c-0.2-0.1-0.4-0.1-0.5-0.1c-0.4,0-0.7,0.2-1,0.6c-0.3,0.4-0.6,1-0.8,1.7l-0.3,2.8H84.3z"/>
	<path class="st2" d="M90.9,45.5l1.1-8.8H93l-0.5,4.1c0.3-0.5,0.7-0.8,1.1-1.1c0.4-0.2,0.8-0.4,1.2-0.4c0.5,0,0.8,0.2,1.1,0.5
		c0.2,0.3,0.4,0.7,0.4,1.3c0,0.1,0,0.2,0,0.2c0,0.1,0,0.2,0,0.3l-0.5,3.9h-1.1l0.5-3.9c0-0.1,0-0.2,0-0.2c0-0.1,0-0.1,0-0.2
		c0-0.3-0.1-0.6-0.2-0.7s-0.3-0.2-0.6-0.2c-0.2,0-0.4,0-0.6,0.1c-0.2,0.1-0.4,0.2-0.6,0.4c-0.2,0.2-0.3,0.4-0.5,0.7
		c-0.2,0.3-0.3,0.5-0.4,0.8L92,45.5H90.9z"/>
	<path class="st2" d="M101.7,45.5h-0.6c-0.1,0-0.2,0-0.3-0.1c0-0.1-0.1-0.2-0.1-0.3l0.1-1.2c-0.1,0.3-0.3,0.5-0.5,0.7
		c-0.2,0.2-0.3,0.4-0.5,0.5c-0.2,0.1-0.4,0.3-0.6,0.3c-0.2,0.1-0.4,0.1-0.6,0.1c-0.2,0-0.5,0-0.7-0.1c-0.2-0.1-0.4-0.2-0.5-0.4
		c-0.1-0.2-0.2-0.4-0.3-0.7c-0.1-0.3-0.1-0.6-0.1-0.9c0-0.4,0-0.7,0.1-1.1c0.1-0.3,0.2-0.7,0.4-1c0.2-0.3,0.4-0.6,0.6-0.8
		c0.2-0.3,0.5-0.5,0.8-0.7s0.6-0.3,0.9-0.4c0.3-0.1,0.7-0.2,1-0.2c0.3,0,0.5,0,0.8,0.1c0.2,0,0.5,0.1,0.7,0.2L101.7,45.5z
		 M99.1,44.7c0.2,0,0.4-0.1,0.6-0.2c0.2-0.1,0.4-0.3,0.5-0.5c0.2-0.2,0.3-0.5,0.5-0.8c0.1-0.3,0.3-0.6,0.4-1l0.3-2.1
		c-0.1-0.1-0.2-0.1-0.3-0.1s-0.2,0-0.3,0c-0.2,0-0.5,0-0.7,0.1c-0.2,0.1-0.4,0.2-0.6,0.3s-0.4,0.3-0.5,0.5c-0.2,0.2-0.3,0.4-0.4,0.6
		c-0.1,0.2-0.2,0.5-0.3,0.7c-0.1,0.3-0.1,0.5-0.1,0.8C98.2,44.2,98.5,44.7,99.1,44.7z"/>
	<path class="st2" d="M103,47.6l1-8.1h0.5c0.2,0,0.4,0.1,0.4,0.4l-0.1,1.3c0.2-0.3,0.3-0.5,0.5-0.7c0.2-0.2,0.4-0.4,0.6-0.5
		c0.2-0.2,0.4-0.3,0.6-0.4s0.4-0.1,0.7-0.1c0.5,0,0.9,0.2,1.2,0.6s0.4,0.9,0.4,1.6c0,0.3,0,0.7-0.1,1c-0.1,0.3-0.2,0.6-0.3,0.9
		c-0.1,0.3-0.3,0.6-0.5,0.8c-0.2,0.3-0.4,0.5-0.6,0.7c-0.2,0.2-0.5,0.3-0.7,0.4s-0.5,0.2-0.8,0.2c-0.3,0-0.6-0.1-0.8-0.2
		c-0.2-0.1-0.5-0.3-0.6-0.5l-0.3,2.7H103z M106.8,40.2c-0.2,0-0.4,0.1-0.6,0.2c-0.2,0.1-0.4,0.3-0.6,0.5c-0.2,0.2-0.4,0.5-0.5,0.8
		s-0.3,0.6-0.4,1l-0.2,1.5c0.2,0.2,0.3,0.4,0.5,0.5c0.2,0.1,0.4,0.1,0.7,0.1c0.2,0,0.4,0,0.6-0.1c0.2-0.1,0.4-0.2,0.5-0.4
		s0.3-0.3,0.4-0.5c0.1-0.2,0.2-0.4,0.3-0.6c0.1-0.2,0.1-0.5,0.2-0.7c0-0.2,0.1-0.5,0.1-0.7c0-0.5-0.1-0.8-0.3-1.1
		S107.1,40.2,106.8,40.2z"/>
	<path class="st2" d="M109.2,47.6l1-8.1h0.5c0.2,0,0.4,0.1,0.4,0.4l-0.1,1.3c0.2-0.3,0.3-0.5,0.5-0.7c0.2-0.2,0.4-0.4,0.6-0.5
		c0.2-0.2,0.4-0.3,0.6-0.4s0.4-0.1,0.7-0.1c0.5,0,0.9,0.2,1.2,0.6s0.4,0.9,0.4,1.6c0,0.3,0,0.7-0.1,1c-0.1,0.3-0.2,0.6-0.3,0.9
		c-0.1,0.3-0.3,0.6-0.5,0.8c-0.2,0.3-0.4,0.5-0.6,0.7c-0.2,0.2-0.5,0.3-0.7,0.4s-0.5,0.2-0.8,0.2c-0.3,0-0.6-0.1-0.8-0.2
		c-0.2-0.1-0.5-0.3-0.6-0.5l-0.3,2.7H109.2z M113,40.2c-0.2,0-0.4,0.1-0.6,0.2c-0.2,0.1-0.4,0.3-0.6,0.5c-0.2,0.2-0.4,0.5-0.5,0.8
		s-0.3,0.6-0.4,1l-0.2,1.5c0.2,0.2,0.3,0.4,0.5,0.5c0.2,0.1,0.4,0.1,0.7,0.1c0.2,0,0.4,0,0.6-0.1c0.2-0.1,0.4-0.2,0.5-0.4
		s0.3-0.3,0.4-0.5c0.1-0.2,0.2-0.4,0.3-0.6c0.1-0.2,0.1-0.5,0.2-0.7c0-0.2,0.1-0.5,0.1-0.7c0-0.5-0.1-0.8-0.3-1.1
		S113.3,40.2,113,40.2z"/>
	<path class="st2" d="M117.2,47.3c-0.1,0.2-0.2,0.2-0.4,0.2H116l1.3-2.4l-1.6-5.7h0.9c0.1,0,0.1,0,0.2,0.1s0.1,0.1,0.1,0.2l1,3.8
		c0,0.1,0,0.2,0,0.3s0,0.2,0,0.3c0-0.1,0.1-0.2,0.1-0.3s0.1-0.2,0.1-0.3l1.9-3.8c0-0.1,0.1-0.1,0.1-0.2c0.1,0,0.1-0.1,0.2-0.1h0.8
		L117.2,47.3z"/>
	<path class="st2" d="M123.7,45.5l0.7-6.1h0.5c0.2,0,0.4,0.1,0.4,0.4l-0.1,1.1c0.3-0.5,0.6-0.9,1-1.1c0.4-0.3,0.7-0.4,1.1-0.4
		c0.4,0,0.7,0.1,0.9,0.4c0.2,0.3,0.3,0.7,0.3,1.2c0.3-0.6,0.6-1,1-1.2s0.8-0.4,1.2-0.4c0.4,0,0.8,0.1,1,0.4s0.3,0.7,0.3,1.3
		c0,0.1,0,0.2,0,0.3c0,0.1,0,0.2,0,0.3l-0.5,3.9h-1l0.5-3.9c0-0.2,0-0.4,0-0.5c0-0.3,0-0.5-0.2-0.7c-0.1-0.1-0.3-0.2-0.5-0.2
		c-0.2,0-0.3,0-0.5,0.1s-0.3,0.2-0.5,0.4s-0.3,0.4-0.4,0.6c-0.1,0.2-0.3,0.5-0.4,0.8l-0.4,3.3h-1.1l0.5-3.9c0-0.1,0-0.2,0-0.3
		c0-0.1,0-0.2,0-0.3c0-0.3,0-0.5-0.1-0.6c-0.1-0.1-0.3-0.2-0.5-0.2c-0.2,0-0.4,0-0.6,0.1c-0.2,0.1-0.3,0.2-0.5,0.4
		c-0.2,0.2-0.3,0.4-0.4,0.7c-0.1,0.3-0.3,0.6-0.4,0.9l-0.4,3.2H123.7z"/>
	<path class="st2" d="M138,40.8c0,0.3-0.1,0.5-0.2,0.7c-0.1,0.2-0.3,0.4-0.6,0.6c-0.3,0.2-0.7,0.3-1.2,0.5s-1.2,0.2-1.9,0.3
		c0,0,0,0.1,0,0.1s0,0.1,0,0.1c0,0.5,0.1,0.9,0.4,1.2c0.2,0.3,0.6,0.4,1.1,0.4c0.2,0,0.4,0,0.5-0.1c0.1,0,0.3-0.1,0.4-0.1
		s0.2-0.1,0.3-0.2c0.1-0.1,0.2-0.1,0.2-0.2c0.1-0.1,0.1-0.1,0.2-0.1c0.1,0,0.1-0.1,0.2-0.1c0.1,0,0.1,0,0.2,0.1l0.3,0.3
		c-0.2,0.2-0.4,0.4-0.6,0.5s-0.4,0.3-0.6,0.4c-0.2,0.1-0.4,0.2-0.6,0.2c-0.2,0-0.5,0.1-0.7,0.1c-0.3,0-0.7-0.1-0.9-0.2
		c-0.3-0.1-0.5-0.3-0.7-0.5s-0.3-0.5-0.4-0.8c-0.1-0.3-0.2-0.6-0.2-1c0-0.3,0-0.6,0.1-0.9c0.1-0.3,0.2-0.6,0.3-0.9
		c0.1-0.3,0.3-0.5,0.5-0.8c0.2-0.2,0.4-0.4,0.6-0.6c0.2-0.2,0.5-0.3,0.8-0.4c0.3-0.1,0.6-0.1,0.9-0.1c0.3,0,0.6,0,0.8,0.1
		c0.2,0.1,0.4,0.2,0.6,0.3c0.1,0.1,0.3,0.3,0.3,0.4C138,40.4,138,40.6,138,40.8z M136.2,40.1c-0.3,0-0.5,0.1-0.7,0.2
		s-0.4,0.2-0.6,0.4c-0.2,0.2-0.3,0.4-0.4,0.6c-0.1,0.2-0.2,0.5-0.3,0.8c0.6-0.1,1.1-0.2,1.5-0.3c0.4-0.1,0.7-0.2,0.9-0.3
		c0.2-0.1,0.3-0.2,0.4-0.4c0.1-0.1,0.1-0.3,0.1-0.4c0-0.1,0-0.1,0-0.2s-0.1-0.1-0.2-0.2s-0.2-0.1-0.3-0.2
		C136.5,40.2,136.3,40.1,136.2,40.1z"/>
	<path class="st2" d="M138.7,45.5l0.7-6.1h0.5c0.2,0,0.4,0.1,0.4,0.4l-0.1,1.1c0.3-0.5,0.6-0.9,1-1.1c0.4-0.3,0.7-0.4,1.1-0.4
		c0.4,0,0.7,0.1,0.9,0.4c0.2,0.3,0.3,0.7,0.3,1.2c0.3-0.6,0.6-1,1-1.2s0.8-0.4,1.2-0.4c0.4,0,0.8,0.1,1,0.4s0.3,0.7,0.3,1.3
		c0,0.1,0,0.2,0,0.3c0,0.1,0,0.2,0,0.3l-0.5,3.9h-1l0.5-3.9c0-0.2,0-0.4,0-0.5c0-0.3,0-0.5-0.2-0.7c-0.1-0.1-0.3-0.2-0.5-0.2
		c-0.2,0-0.3,0-0.5,0.1s-0.3,0.2-0.5,0.4s-0.3,0.4-0.4,0.6c-0.1,0.2-0.3,0.5-0.4,0.8l-0.4,3.3h-1.1l0.5-3.9c0-0.1,0-0.2,0-0.3
		c0-0.1,0-0.2,0-0.3c0-0.3,0-0.5-0.1-0.6c-0.1-0.1-0.3-0.2-0.5-0.2c-0.2,0-0.4,0-0.6,0.1c-0.2,0.1-0.3,0.2-0.5,0.4
		c-0.2,0.2-0.3,0.4-0.4,0.7c-0.1,0.3-0.3,0.6-0.4,0.9l-0.4,3.2H138.7z"/>
	<path class="st2" d="M150.2,45.6c-0.3,0-0.6-0.1-0.9-0.2c-0.3-0.1-0.5-0.3-0.7-0.5s-0.4-0.5-0.5-0.8s-0.2-0.7-0.2-1.1
		c0-0.5,0.1-1,0.2-1.4c0.2-0.5,0.4-0.8,0.7-1.2c0.3-0.3,0.6-0.6,1-0.8c0.4-0.2,0.8-0.3,1.2-0.3c0.3,0,0.6,0.1,0.9,0.2
		c0.3,0.1,0.5,0.3,0.7,0.5c0.2,0.2,0.4,0.5,0.5,0.8c0.1,0.3,0.2,0.7,0.2,1.1c0,0.5-0.1,1-0.2,1.4s-0.4,0.8-0.7,1.2
		c-0.3,0.3-0.6,0.6-1,0.8C151.1,45.5,150.7,45.6,150.2,45.6z M150.3,44.8c0.3,0,0.6-0.1,0.8-0.2c0.2-0.2,0.4-0.4,0.6-0.6
		s0.3-0.6,0.4-0.9c0.1-0.3,0.1-0.7,0.1-1.1c0-0.6-0.1-1-0.3-1.3c-0.2-0.3-0.5-0.4-1-0.4c-0.3,0-0.6,0.1-0.8,0.2
		c-0.2,0.2-0.4,0.4-0.6,0.6s-0.3,0.6-0.4,0.9s-0.1,0.7-0.1,1.1c0,0.6,0.1,1,0.3,1.3C149.6,44.6,149.9,44.8,150.3,44.8z"/>
	<path class="st2" d="M154.1,45.5l0.7-6.1h0.5c0.1,0,0.2,0,0.3,0.1c0.1,0.1,0.1,0.1,0.1,0.2c0,0,0,0,0,0.1c0,0,0,0.1,0,0.1
		c0,0,0,0.1,0,0.1s0,0,0,0l-0.1,1.1c0.3-0.6,0.6-1,0.9-1.3c0.3-0.3,0.7-0.5,1-0.5c0.2,0,0.3,0,0.5,0.1l-0.2,1
		c-0.2-0.1-0.4-0.1-0.5-0.1c-0.4,0-0.7,0.2-1,0.6c-0.3,0.4-0.6,1-0.8,1.7l-0.3,2.8H154.1z"/>
	<path class="st2" d="M160.2,39.5l-0.7,6.1h-1l0.7-6.1H160.2z M160.6,37.5c0,0.1,0,0.2-0.1,0.3c0,0.1-0.1,0.2-0.2,0.2
		c-0.1,0.1-0.1,0.1-0.2,0.2s-0.2,0.1-0.3,0.1c-0.1,0-0.2,0-0.3-0.1s-0.2-0.1-0.2-0.2c-0.1-0.1-0.1-0.1-0.2-0.2
		c0-0.1-0.1-0.2-0.1-0.3s0-0.2,0.1-0.3c0-0.1,0.1-0.2,0.2-0.2c0.1-0.1,0.1-0.1,0.2-0.2s0.2-0.1,0.3-0.1c0.1,0,0.2,0,0.3,0.1
		s0.2,0.1,0.2,0.2c0.1,0.1,0.1,0.2,0.2,0.2C160.6,37.3,160.6,37.4,160.6,37.5z"/>
	<path class="st2" d="M166.1,40.8c0,0.3-0.1,0.5-0.2,0.7c-0.1,0.2-0.3,0.4-0.6,0.6c-0.3,0.2-0.7,0.3-1.2,0.5s-1.2,0.2-1.9,0.3
		c0,0,0,0.1,0,0.1s0,0.1,0,0.1c0,0.5,0.1,0.9,0.4,1.2c0.2,0.3,0.6,0.4,1.1,0.4c0.2,0,0.4,0,0.5-0.1c0.1,0,0.3-0.1,0.4-0.1
		s0.2-0.1,0.3-0.2c0.1-0.1,0.2-0.1,0.2-0.2c0.1-0.1,0.1-0.1,0.2-0.1c0.1,0,0.1-0.1,0.2-0.1c0.1,0,0.1,0,0.2,0.1l0.3,0.3
		c-0.2,0.2-0.4,0.4-0.6,0.5s-0.4,0.3-0.6,0.4c-0.2,0.1-0.4,0.2-0.6,0.2c-0.2,0-0.5,0.1-0.7,0.1c-0.3,0-0.7-0.1-0.9-0.2
		c-0.3-0.1-0.5-0.3-0.7-0.5s-0.3-0.5-0.4-0.8c-0.1-0.3-0.2-0.6-0.2-1c0-0.3,0-0.6,0.1-0.9c0.1-0.3,0.2-0.6,0.3-0.9
		c0.1-0.3,0.3-0.5,0.5-0.8c0.2-0.2,0.4-0.4,0.6-0.6c0.2-0.2,0.5-0.3,0.8-0.4c0.3-0.1,0.6-0.1,0.9-0.1c0.3,0,0.6,0,0.8,0.1
		c0.2,0.1,0.4,0.2,0.6,0.3c0.1,0.1,0.3,0.3,0.3,0.4C166.1,40.4,166.1,40.6,166.1,40.8z M164.3,40.1c-0.3,0-0.5,0.1-0.7,0.2
		s-0.4,0.2-0.6,0.4c-0.2,0.2-0.3,0.4-0.4,0.6c-0.1,0.2-0.2,0.5-0.3,0.8c0.6-0.1,1.1-0.2,1.5-0.3c0.4-0.1,0.7-0.2,0.9-0.3
		c0.2-0.1,0.3-0.2,0.4-0.4c0.1-0.1,0.1-0.3,0.1-0.4c0-0.1,0-0.1,0-0.2s-0.1-0.1-0.2-0.2s-0.2-0.1-0.3-0.2
		C164.6,40.2,164.4,40.1,164.3,40.1z"/>
	<path class="st2" d="M170.7,40.4c0,0-0.1,0.1-0.1,0.1s-0.1,0-0.1,0c-0.1,0-0.1,0-0.2-0.1c-0.1,0-0.1-0.1-0.2-0.1
		c-0.1-0.1-0.2-0.1-0.3-0.1c-0.1,0-0.3-0.1-0.5-0.1c-0.2,0-0.3,0-0.5,0.1c-0.1,0.1-0.3,0.1-0.4,0.2c-0.1,0.1-0.2,0.2-0.2,0.3
		c-0.1,0.1-0.1,0.2-0.1,0.4c0,0.2,0.1,0.3,0.2,0.5s0.3,0.2,0.5,0.3c0.2,0.1,0.4,0.2,0.6,0.2c0.2,0.1,0.4,0.2,0.6,0.3
		c0.2,0.1,0.3,0.3,0.5,0.4c0.1,0.2,0.2,0.4,0.2,0.7c0,0.3-0.1,0.5-0.2,0.8c-0.1,0.3-0.3,0.5-0.5,0.7s-0.5,0.3-0.7,0.5
		c-0.3,0.1-0.6,0.2-1,0.2c-0.4,0-0.7-0.1-1-0.2c-0.3-0.1-0.5-0.3-0.7-0.5l0.3-0.4c0-0.1,0.1-0.1,0.1-0.1c0,0,0.1,0,0.2,0
		c0.1,0,0.1,0,0.2,0.1c0.1,0.1,0.1,0.1,0.2,0.2s0.2,0.1,0.4,0.2c0.1,0.1,0.3,0.1,0.6,0.1c0.2,0,0.4,0,0.5-0.1
		c0.2-0.1,0.3-0.1,0.4-0.2c0.1-0.1,0.2-0.2,0.3-0.4c0.1-0.1,0.1-0.3,0.1-0.4c0-0.2-0.1-0.4-0.2-0.5c-0.1-0.1-0.3-0.2-0.5-0.3
		c-0.2-0.1-0.4-0.2-0.6-0.2c-0.2-0.1-0.4-0.2-0.6-0.3c-0.2-0.1-0.3-0.3-0.5-0.4c-0.1-0.2-0.2-0.4-0.2-0.7c0-0.3,0.1-0.5,0.2-0.7
		c0.1-0.2,0.2-0.4,0.4-0.6c0.2-0.2,0.4-0.3,0.7-0.4s0.6-0.2,0.9-0.2c0.4,0,0.7,0.1,1,0.2c0.3,0.1,0.5,0.3,0.7,0.5L170.7,40.4z"/>
</g>
</svg>
