<?xml version="1.0" encoding="utf-8"?>
<!-- Generator: Adobe Illustrator 25.2.0, SVG Export Plug-In . SVG Version: 6.00 Build 0)  -->
<!DOCTYPE svg PUBLIC "-//W3C//DTD SVG 1.1//EN" "http://www.w3.org/Graphics/SVG/1.1/DTD/svg11.dtd" [
	<!ENTITY ns_extend "http://ns.adobe.com/Extensibility/1.0/">
	<!ENTITY ns_ai "http://ns.adobe.com/AdobeIllustrator/10.0/">
	<!ENTITY ns_graphs "http://ns.adobe.com/Graphs/1.0/">
	<!ENTITY ns_vars "http://ns.adobe.com/Variables/1.0/">
	<!ENTITY ns_imrep "http://ns.adobe.com/ImageReplacement/1.0/">
	<!ENTITY ns_sfw "http://ns.adobe.com/SaveForWeb/1.0/">
	<!ENTITY ns_custom "http://ns.adobe.com/GenericCustomNamespace/1.0/">
	<!ENTITY ns_adobe_xpath "http://ns.adobe.com/XPath/1.0/">
]>
<svg version="1.1" id="Layer_1" xmlns:x="&ns_extend;" xmlns:i="&ns_ai;" xmlns:graph="&ns_graphs;"
	 xmlns="http://www.w3.org/2000/svg" xmlns:xlink="http://www.w3.org/1999/xlink" x="0px" y="0px" viewBox="0 0 82.1 82.1"
	 style="enable-background:new 0 0 82.1 82.1;" xml:space="preserve">
<style type="text/css">
	.st0{fill-rule:evenodd;clip-rule:evenodd;fill:#E30016;}
	.st1{fill-rule:evenodd;clip-rule:evenodd;fill:#91137C;}
</style>
<metadata>
	<sfw  xmlns="&ns_sfw;">
		<slices></slices>
		<sliceSourceBounds  bottomLeftOrigin="true" height="120.7" width="169.2" x="-237.3" y="493.7"></sliceSourceBounds>
	</sfw>
</metadata>
<path class="st0" d="M51.4,47c-0.1,0.2-0.2,0.3-0.3,0.5c-0.1,0.2-0.2,0.3-0.3,0.5c-0.1,0.2-0.2,0.3-0.3,0.5c-0.1,0.2-0.3,0.5-0.6,1
	c-0.3,0.5-0.6,1.1-0.9,1.7c-0.1,0.3-0.3,0.6-0.5,0.9c-0.2,0.3-0.3,0.5-0.4,0.7C48.1,53,48,53.1,48,53.2c-2.1,3.8-4.1,6.8-6,9
	c-2,2.3-4.1,4.2-6.4,5.6c-1.7,1-3.6,1.9-5.6,2.6c-2.1,0.7-3.8,1.1-5.2,1.1c-2.7,0-4-1-4-3c0-1.5,0.8-3.2,2.5-5.2
	c0.9-1,1.5-1.6,1.8-1.6c0.3,0,0.5,0.2,0.5,0.5c0,0-0.1,0.1-0.2,0.3c-0.4,0.5-0.6,1.1-0.6,1.8c0,1,0.4,1.8,1.3,2.4
	c0.8,0.6,2,0.9,3.5,0.9c1.6,0,3.3-0.4,5-1.2c1.7-0.8,3-1.8,3.9-3c1.1-1.4,2-3.4,2.6-6c0.6-2.2,1.1-5.5,1.6-9.8l0.6-5.8
	c0.7-5.9,1.3-9.4,1.7-10.6c0.5-1.4,1.5-3,3-4.8L50,24c0,0,0-0.1,0.1-0.1c0,0,0.1-0.1,0.1-0.1c0,0,0.1-0.2,0.4-0.5
	c-5.1-1.3-9.5-1.9-13.3-1.9c-3.5,0-6.7,0.5-9.7,1.6c-3,1.1-5.5,2.6-7.6,4.6c-4.5,4.3-6.7,9.4-6.7,15.2c0,2.7,0.5,5,1.5,7
	c1,2.1,2.3,3.7,4.1,4.8c1.7,1.2,3.7,1.8,5.8,1.8c2,0,3.8-0.4,5.4-1.1c1.6-0.7,2.8-1.7,3.8-3.1c0.9-1.3,1.4-2.8,1.4-4.5
	c0-1.9-0.5-3.6-1.6-4.9c-1.1-1.3-2.4-2-3.9-2c-0.5,0-0.9,0.1-1.3,0.4l-0.4,0.3c-0.1,0.1-0.2,0.2-0.4,0.2c-0.2,0-0.3-0.1-0.3-0.4
	c0-0.3,0.3-0.7,1-1.2c1.6-1.4,3.2-2.1,4.9-2.1c1,0,1.9,0.3,2.9,0.8c0.9,0.6,1.6,1.3,2.1,2.3c0.5,0.9,0.8,2,0.8,3.2
	c0,2.3-0.9,4.7-2.6,7.1c-1.7,2.4-3.9,4.5-6.6,6.1c-2.7,1.6-5.4,2.4-8,2.4c-2.3,0-4.5-0.6-6.4-1.9c-2-1.3-3.5-3-4.6-5.1
	c-1.1-2.2-1.7-4.6-1.7-7.2c0-2.3,0.5-4.7,1.4-7.2c0.9-2.5,2.3-4.8,4-7.1c1.8-2.4,3.9-4.4,6.2-6.2c3.4-2.7,7.2-4.9,11.4-6.4
	c1.8-0.7,3.4-1.1,4.8-1.4c1.5-0.3,3.3-0.4,5.5-0.4c2,0,4.7,0.2,7.9,0.7c2,0.3,3.6,0.5,4.6,0.5c0.9,0,1.8-0.1,2.5-0.4
	c0.4-0.1,0.6-0.2,0.7-0.2c0.3,0,0.5,0.1,0.5,0.4c0,0.3-0.2,0.7-0.8,1.1l-1.4,1.2C53,23,50.9,26.2,50,29.9c-0.4,1.7-0.8,4.4-1.3,8
	c-0.6,4.6-1.1,8.7-1.4,12.3l-0.1,0.9l0.5-1c2-3.8,3.9-7.2,5.8-10c2-3,3.9-5.5,5.8-7.4c1.9-2.1,4.2-3.8,6.9-5.2
	c2.6-1.3,5.1-1.9,7.4-1.9c1.2,0,2.1,0.2,2.8,0.7c0.7,0.5,1,1.1,1,1.9c0,0.8-0.6,1.9-1.7,3.3l-1.4,1.6c-0.8,1-1.3,1.4-1.6,1.4
	c-0.3,0-0.4-0.1-0.4-0.4c0-0.1,0.1-0.2,0.1-0.3l0.2-0.2c0.2-0.3,0.3-0.7,0.3-0.9c0-1.4-1.2-2.1-3.7-2.1c-4.6,0-9.4,3.4-14.2,10.3
	l0.4,0.9c1.6,4.4,3.1,8.6,4.5,12.4c1.4,3.9,2.7,6.8,3.7,8.8c1,2,2,3.3,3,4.2c1,0.9,2.1,1.3,3.2,1.3c0.6,0,1.2-0.1,1.7-0.3
	c0.2-0.1,0.4-0.1,0.5-0.1c0.3,0,0.4,0.1,0.4,0.3c0,0.2-0.1,0.3-0.3,0.4c-0.3,0.2-0.7,0.4-1.2,0.5l-2.4,0.9c-1.8,0.6-3.4,1-4.6,1
	c-0.8,0-1.5-0.2-2.2-0.7c-0.7-0.4-1.3-1.1-1.8-2.2c-0.6-1-1.2-2.5-1.9-4.3l-1.9-5.1L54,53.4C52.6,49.9,51.8,47.8,51.4,47z"/>
<rect x="34.1" y="42.2" transform="matrix(0.8135 -0.5815 0.5815 0.8135 -17.7329 33.3045)" class="st0" width="17.9" height="4.2"/>
<path class="st0" d="M50.5,40.6l0.2,0.3c-1.6,1.5-4,2.2-6.2,2.4c-3.7,0.2-7.3,1-8.8,4.7l-0.3-0.2c1.5-3.3,3.8-5.1,7.5-5.3
	C45.4,42.3,48.6,42.6,50.5,40.6z"/>
<path class="st0" d="M49.6,41.4l0.1,0.2c-1.3,1-3.4,1.6-5.2,1.6c-3.1,0.1-6.3,0.9-7.6,3.4c-0.2,0.9-1,0.7-0.4-0.2
	c1.3-2.2,3.5-3.6,6.6-3.8C45.4,42.5,48,42.7,49.6,41.4z"/>
<path class="st0" d="M48.5,42.7l-0.1-0.4c-0.9,0.5-1.9,0.8-3,0.9l-2.5,0.2c-2-0.1-4.4,1.2-5.3,3.1l2.1-1.2c1.6,1.3,3.3,0.8,3.5-1.1
	C45,43.9,46.7,43.4,48.5,42.7z"/>
</svg>
